The Mechanic(DivX)(2011)(17-3-bios) Nl subs)  TBS




**************Vanaf 17 maart in de bioscoop****************** 


Verenigde Staten
Actie / Drama
92 minuten

geregisseerd door Simon West
met Jason Statham, Ben Foster en Donald Sutherland

Na jarenlang een meester in zijn vak geweest te zijn wil een gepensioneerde huurmoordenaar (Jason Statham), bijgenaamd 'The Mechanic', niets anders dan rust. Wanneer de vader van Steve McKenna (Ben Foster) vermoord wordt, vraagt Steve echter om zijn hulp en wil hij dat 'The Mechanic' hem de kneepjes van het vak leert, zodat hij uiteindelijk de dood van zijn vader kan wreken.

Storyline

Arthur Bishop (Jason Statham) is a 'mechanic' - an elite assassin with a strict code and unique talent for cleanly eliminating targets. It's a job that requires professional perfection and total detachment, and Bishop is the best in the business. But when his mentor and close friend Harry (Donald Sutherland) is murdered, Bishop is anything but detached. His next assignment is self-imposed - he wants those responsible dead. His mission grows complicated when Harry's son Steve (Ben Foster) approaches him with the same vengeful goal and a determination to learn Bishop's trade. Bishop has always acted alone but he can't turn his back on Harry's son. A methodical hit man takes an impulsive student deep into his world and a deadly partnership is born. But while in pursuit of their ultimate mark, deceptions threaten to surface and those hired to fix problems become problems themselves.

SOURCE..........: The Mechanic 2011 R5 LiNE AC3-T0XiC-iNK 
SIZE............: 1.45GB
FORM............: AVI
VIDEO CODEC.....: XVID 
BITRATE.........: 1908 Kbit/s
WIDTH & HEIGHT..: 720 X 328
FRAMES/S........: 25.000 Fps
AUDIO...........: English
AUDIO CODE......: AC3
BITRATE.........: 448kbps
CHANNELS........: 5
SAMPLING........: 48.0 kHz
Subtitles.......: Dutch srt
Vertaling.......: SRT
Categorie.......: Beeld 
Formaat.........: DivX 
Bron............: R5
Subs............: Dutch (lossles) 
Ondertitels.....: Nederlands (extern)
Thanks..........: Hannes3 

NOTES:: T0XiC-iNK is proud to present The Mechanic R5, 5.1 using our LiNE and genuine russian
surround channels. Enjoy



General

Format                           : DivX
Format/Info                      : Hack of AVI
File size                        : 1.46 GiB
Duration                         : 1h 28mn
Overall bit rate                 : 2 357 Kbps

Video
ID                               : 0
Format                           : MPEG-4 Visual
Format profile                   : Advanced Simple@L5
Format settings, BVOP            : Yes
Format settings, QPel            : No
Format settings, GMC             : No warppoints
Format settings, Matrix          : Default (H.263)
Muxing mode                      : Packed bitstream
Codec ID                         : DX50
Codec ID/Hint                    : DivX 5
Duration                         : 1h 28mn
Bit rate                         : 1 899 Kbps
Width                            : 720 pixels
Height                           : 328 pixels
Display aspect ratio             : 2.2:1
Frame rate                       : 25.000 fps
Color space                      : YUV
Chroma subsampling               : 4:2:0
Bit depth                        : 8 bits
Scan type                        : Progressive
Bits/(Pixel*Frame)               : 0.322
Stream size                      : 1.17 GiB (81%)
Title                            : Video 
Writing library                  : XviD 1.2.1 (UTC 2008-12-04)

Audio
ID                               : 1
Format                           : AC-3
Format/Info                      : Audio Coding 3
Mode extension                   : CM (complete main)
Codec ID                         : 2000
Duration                         : 1h 28mn
Bit rate mode                    : Constant
Bit rate                         : 448 Kbps
Channel(s)                       : 6 channels
Channel positions                : Front: L C R, Side: L R, LFE
Sampling rate                    : 48.0 KHz
Bit depth                        : 16 bits
Stream size                      : 284 MiB (19%)
Alignment                        : Split accross interleaves
Interleave, duration             : 40 ms (1.00 video frame)
Interleave, preload duration     : 500 ms
Title                            : Audio 



  
  
http://www.moviemeter.nl/film/60850  
http://www.imdb.com/title/tt0472399
 